<mxfile host="Electron" agent="Mozilla/5.0 (Windows NT 10.0; Win64; x64) AppleWebKit/537.36 (KHTML, like Gecko) draw.io/24.7.8 Chrome/128.0.6613.36 Electron/32.0.1 Safari/537.36" version="24.7.8">
  <diagram name="Seite-1" id="6LRnauXFYU12BWlSwF9J">
    <mxGraphModel dx="875" dy="532" grid="1" gridSize="10" guides="1" tooltips="1" connect="1" arrows="1" fold="1" page="1" pageScale="1" pageWidth="827" pageHeight="1169" math="0" shadow="0">
      <root>
        <mxCell id="0" />
        <mxCell id="1" parent="0" />
        <mxCell id="-Ty5Zn1_q2FnC41AUKoy-9" value="" style="rounded=0;whiteSpace=wrap;html=1;" vertex="1" parent="1">
          <mxGeometry x="80" y="180" width="540" height="210" as="geometry" />
        </mxCell>
        <mxCell id="-Ty5Zn1_q2FnC41AUKoy-1" value="User" style="shape=umlLifeline;perimeter=lifelinePerimeter;whiteSpace=wrap;html=1;container=1;dropTarget=0;collapsible=0;recursiveResize=0;outlineConnect=0;portConstraint=eastwest;newEdgeStyle={&quot;edgeStyle&quot;:&quot;elbowEdgeStyle&quot;,&quot;elbow&quot;:&quot;vertical&quot;,&quot;curved&quot;:0,&quot;rounded&quot;:0};" vertex="1" parent="1">
          <mxGeometry x="130" y="100" width="100" height="360" as="geometry" />
        </mxCell>
        <mxCell id="-Ty5Zn1_q2FnC41AUKoy-3" value="" style="html=1;points=[[0,0,0,0,5],[0,1,0,0,-5],[1,0,0,0,5],[1,1,0,0,-5]];perimeter=orthogonalPerimeter;outlineConnect=0;targetShapes=umlLifeline;portConstraint=eastwest;newEdgeStyle={&quot;curved&quot;:0,&quot;rounded&quot;:0};" vertex="1" parent="-Ty5Zn1_q2FnC41AUKoy-1">
          <mxGeometry x="45" y="60" width="10" height="280" as="geometry" />
        </mxCell>
        <mxCell id="-Ty5Zn1_q2FnC41AUKoy-2" value="System" style="shape=umlLifeline;perimeter=lifelinePerimeter;whiteSpace=wrap;html=1;container=1;dropTarget=0;collapsible=0;recursiveResize=0;outlineConnect=0;portConstraint=eastwest;newEdgeStyle={&quot;edgeStyle&quot;:&quot;elbowEdgeStyle&quot;,&quot;elbow&quot;:&quot;vertical&quot;,&quot;curved&quot;:0,&quot;rounded&quot;:0};" vertex="1" parent="1">
          <mxGeometry x="450" y="100" width="100" height="360" as="geometry" />
        </mxCell>
        <mxCell id="-Ty5Zn1_q2FnC41AUKoy-5" value="" style="html=1;points=[[0,0,0,0,5],[0,1,0,0,-5],[1,0,0,0,5],[1,1,0,0,-5]];perimeter=orthogonalPerimeter;outlineConnect=0;targetShapes=umlLifeline;portConstraint=eastwest;newEdgeStyle={&quot;curved&quot;:0,&quot;rounded&quot;:0};" vertex="1" parent="-Ty5Zn1_q2FnC41AUKoy-2">
          <mxGeometry x="45" y="60" width="10" height="280" as="geometry" />
        </mxCell>
        <mxCell id="-Ty5Zn1_q2FnC41AUKoy-8" value="" style="html=1;points=[[0,0,0,0,5],[0,1,0,0,-5],[1,0,0,0,5],[1,1,0,0,-5]];perimeter=orthogonalPerimeter;outlineConnect=0;targetShapes=umlLifeline;portConstraint=eastwest;newEdgeStyle={&quot;curved&quot;:0,&quot;rounded&quot;:0};" vertex="1" parent="-Ty5Zn1_q2FnC41AUKoy-2">
          <mxGeometry x="50" y="90" width="10" height="80" as="geometry" />
        </mxCell>
        <mxCell id="-Ty5Zn1_q2FnC41AUKoy-7" value="authenticate()" style="html=1;align=left;spacingLeft=2;endArrow=block;rounded=0;edgeStyle=orthogonalEdgeStyle;curved=0;rounded=0;" edge="1" target="-Ty5Zn1_q2FnC41AUKoy-8" parent="-Ty5Zn1_q2FnC41AUKoy-2" source="-Ty5Zn1_q2FnC41AUKoy-5">
          <mxGeometry relative="1" as="geometry">
            <mxPoint x="60.00034482758616" y="60" as="sourcePoint" />
            <Array as="points">
              <mxPoint x="80" y="60" />
              <mxPoint x="80" y="90" />
            </Array>
            <mxPoint x="70" y="80" as="targetPoint" />
          </mxGeometry>
        </mxCell>
        <mxCell id="-Ty5Zn1_q2FnC41AUKoy-4" value="login(customer-ID, password)&amp;nbsp;" style="html=1;verticalAlign=bottom;endArrow=block;curved=0;rounded=0;" edge="1" parent="1" target="-Ty5Zn1_q2FnC41AUKoy-5">
          <mxGeometry width="80" relative="1" as="geometry">
            <mxPoint x="185" y="160" as="sourcePoint" />
            <mxPoint x="499.5" y="160" as="targetPoint" />
          </mxGeometry>
        </mxCell>
        <mxCell id="-Ty5Zn1_q2FnC41AUKoy-10" value="&lt;font style=&quot;font-size: 8px;&quot;&gt;[credentials: correct]&lt;/font&gt;" style="text;html=1;align=center;verticalAlign=middle;whiteSpace=wrap;rounded=0;" vertex="1" parent="1">
          <mxGeometry x="80" y="170" width="90" height="30" as="geometry" />
        </mxCell>
        <mxCell id="-Ty5Zn1_q2FnC41AUKoy-11" value="loginSuccessful()" style="html=1;verticalAlign=bottom;endArrow=none;curved=0;rounded=0;dashed=1;startArrow=open;startFill=0;endFill=0;" edge="1" parent="1" source="-Ty5Zn1_q2FnC41AUKoy-3">
          <mxGeometry width="80" relative="1" as="geometry">
            <mxPoint x="200" y="209" as="sourcePoint" />
            <mxPoint x="500" y="209" as="targetPoint" />
          </mxGeometry>
        </mxCell>
        <mxCell id="-Ty5Zn1_q2FnC41AUKoy-12" value="" style="html=1;verticalAlign=bottom;endArrow=none;dashed=1;endSize=8;curved=0;rounded=0;entryX=0;entryY=0.5;entryDx=0;entryDy=0;exitX=1;exitY=0.5;exitDx=0;exitDy=0;endFill=0;" edge="1" parent="1">
          <mxGeometry relative="1" as="geometry">
            <mxPoint x="610" y="240" as="sourcePoint" />
            <mxPoint x="80" y="240" as="targetPoint" />
          </mxGeometry>
        </mxCell>
        <mxCell id="-Ty5Zn1_q2FnC41AUKoy-13" value="&lt;font style=&quot;font-size: 8px;&quot;&gt;[credentials: false&lt;/font&gt;&lt;div&gt;&lt;font style=&quot;font-size: 8px;&quot;&gt;3x times]&lt;/font&gt;&lt;/div&gt;" style="text;html=1;align=center;verticalAlign=middle;whiteSpace=wrap;rounded=0;" vertex="1" parent="1">
          <mxGeometry x="80" y="240" width="90" height="30" as="geometry" />
        </mxCell>
        <mxCell id="-Ty5Zn1_q2FnC41AUKoy-14" value="" style="edgeStyle=elbowEdgeStyle;fontSize=12;html=1;endArrow=none;endFill=0;rounded=0;entryX=0;entryY=1;entryDx=0;entryDy=-5;entryPerimeter=0;startArrow=open;startFill=0;dashed=1;" edge="1" parent="1" source="-Ty5Zn1_q2FnC41AUKoy-3" target="-Ty5Zn1_q2FnC41AUKoy-8">
          <mxGeometry width="160" relative="1" as="geometry">
            <mxPoint x="320" y="264.66" as="sourcePoint" />
            <mxPoint x="480" y="264.66" as="targetPoint" />
            <Array as="points">
              <mxPoint x="340" y="265" />
            </Array>
          </mxGeometry>
        </mxCell>
        <mxCell id="-Ty5Zn1_q2FnC41AUKoy-16" value="&lt;span style=&quot;font-size: 12px; text-wrap: wrap; background-color: rgb(251, 251, 251);&quot;&gt;cancelLogin()&lt;/span&gt;" style="edgeLabel;html=1;align=center;verticalAlign=middle;resizable=0;points=[];" vertex="1" connectable="0" parent="-Ty5Zn1_q2FnC41AUKoy-14">
          <mxGeometry x="0.0809" y="1" relative="1" as="geometry">
            <mxPoint x="-10" y="-9" as="offset" />
          </mxGeometry>
        </mxCell>
        <mxCell id="-Ty5Zn1_q2FnC41AUKoy-19" value="lockAccount()" style="html=1;align=left;spacingLeft=2;endArrow=block;rounded=0;edgeStyle=orthogonalEdgeStyle;curved=0;rounded=0;" edge="1" target="-Ty5Zn1_q2FnC41AUKoy-5" parent="1">
          <mxGeometry relative="1" as="geometry">
            <mxPoint x="510" y="270" as="sourcePoint" />
            <Array as="points">
              <mxPoint x="540" y="270" />
              <mxPoint x="540" y="300" />
            </Array>
            <mxPoint x="515" y="300" as="targetPoint" />
          </mxGeometry>
        </mxCell>
        <mxCell id="-Ty5Zn1_q2FnC41AUKoy-20" value="reactivateAccount()" style="html=1;verticalAlign=bottom;endArrow=block;curved=0;rounded=0;" edge="1" parent="1">
          <mxGeometry width="80" relative="1" as="geometry">
            <mxPoint x="185" y="320" as="sourcePoint" />
            <mxPoint x="495" y="320" as="targetPoint" />
          </mxGeometry>
        </mxCell>
        <mxCell id="-Ty5Zn1_q2FnC41AUKoy-21" value="" style="rounded=0;whiteSpace=wrap;html=1;" vertex="1" parent="1">
          <mxGeometry x="500" y="320" width="10" height="50" as="geometry" />
        </mxCell>
        <mxCell id="-Ty5Zn1_q2FnC41AUKoy-23" value="reactivateSuccessful" style="html=1;verticalAlign=bottom;endArrow=none;curved=0;rounded=0;startArrow=open;startFill=0;endFill=0;dashed=1;" edge="1" parent="1">
          <mxGeometry width="80" relative="1" as="geometry">
            <mxPoint x="185" y="370" as="sourcePoint" />
            <mxPoint x="495" y="370" as="targetPoint" />
          </mxGeometry>
        </mxCell>
        <mxCell id="-Ty5Zn1_q2FnC41AUKoy-25" value="makeOffer()" style="html=1;verticalAlign=bottom;endArrow=block;curved=0;rounded=0;" edge="1" parent="1">
          <mxGeometry width="80" relative="1" as="geometry">
            <mxPoint x="185" y="430" as="sourcePoint" />
            <mxPoint x="495" y="430" as="targetPoint" />
          </mxGeometry>
        </mxCell>
      </root>
    </mxGraphModel>
  </diagram>
</mxfile>
